# xmcd CD database file
#
# Track frame offsets:
#	150
#	11098
#	23854
#	32840
#	41705
#	59422
#	69407
#	84377
#	98328
#	108612
#	120398
#	131024
#	145385
#	155901
#	169725
#	183344
#	194741
#	206571
#	214036
#	222968
#	245755
#	256568
#	267269
#	276382
#
# Disc length: 3974 seconds
#
# Revision: 0
# Processed by: cddbd v1.5.2PL0 Copyright (c) Steve Scherf et al.
# Submitted via: CDex 1.51
#
DISCID=6a0f8418
DTITLE=Erich Kunzel and The Cincinnati Pops - Mancini's Greatest Hits
DYEAR=1989
DGENRE=Jazz
TTITLE0=Theme From The Pink Panther
TTITLE1=Moon River
TTITLE2=Days Of Wine And Roses
TTITLE3=It Had Better Be Tonight
TTITLE4=Artic Whale Hunt
TTITLE5=Theme From Mr. Lucky
TTITLE6=Theme From Hatari
TTITLE7=Theme From The Thorn Birds
TTITLE8=Charade
TTITLE9=Moment To Moment
TTITLE10=Symphonic Soul
TTITLE11=Drummer's Delight
TTITLE12=March From The Great Waldo Pepper
TTITLE13=Two For The Road
TTITLE14=Theme From The Molly Maguires
TTITLE15=Dear Heart
TTITLE16=Theme From Breakfast At Tiffany's
TTITLE17=Speedy Gonzales
TTITLE18=Punch And Judy
TTITLE19=March With Mancini
TTITLE20=Baby Elephant Walk
TTITLE21=Peter Gunn
TTITLE22=Strings On Fire
TTITLE23=Finale From Victor (Victoria)
EXTD=YEAR: 1989
EXTT0=
EXTT1=
EXTT2=
EXTT3=
EXTT4=
EXTT5=
EXTT6=
EXTT7=
EXTT8=
EXTT9=
EXTT10=
EXTT11=
EXTT12=
EXTT13=
EXTT14=
EXTT15=
EXTT16=
EXTT17=
EXTT18=
EXTT19=
EXTT20=
EXTT21=
EXTT22=
EXTT23=
PLAYORDER=
